#!OML:ASF I:\Actors\actors\Patient Classification 2\Patient 1\Session 1\actor1.ASF
:FULLY-SPECIFIED
:DEGREES
406
root -0.640519 18.7316 5.73566 4.10442 2.19168 -0.822834
lowerback 2.51986 3.19087 2.09744
upperback -0.104365 4.33048 0.951817
thorax -1.43513 2.15025 -0.353698
lowerneck -10.0618 -6.64449 -7.37576
upperneck 20.0611 -9.15339 6.24113
head 8.52794 -4.28344 2.33414
rclavicle -5.01931e-014 -2.38542e-014
rhumerus -14.513 31.0912 -72.9486
rradius 96.537
rwrist -22.0152
rhand -12.7097 -49.8438
rfingers 7.12502
rthumb 13.3731 280.605
lclavicle -5.01931e-014 -2.38542e-014
lhumerus -34.2798 -28.3856 103.904
lradius 105.266
lwrist 73.715
lhand -16.8401 -12.6195
lfingers 7.12502
lthumb 9.38966 17.1513
rfemur 0 0 0
rtibia 0
rfoot 0 0
rtoes 0
lfemur -7.43861 -7.97688 -13.1466
ltibia 21.313
lfoot -22.2887 13.7984
ltoes -54.7301
407
root -0.636479 18.73 5.74295 4.05599 2.15736 -0.817668
lowerback 2.29569 3.18835 1.97051
upperback -0.148336 4.31774 0.923889
thorax -1.36219 2.14541 -0.299235
lowerneck -10.1119 -6.66609 -7.39482
upperneck 20.1929 -9.22964 6.43849
head 8.59805 -4.29964 2.39248
rclavicle -3.82164e-014 4.37326e-015
rhumerus -15.6543 31.0973 -73.8652
rradius 96.7676
rwrist -21.9016
rhand -12.8526 -49.9223
rfingers 7.12502
rthumb 13.2353 280.518
lclavicle -3.82164e-014 4.37326e-015
lhumerus -34.3994 -28.318 104.019
lradius 105.25
lwrist 73.6668
lhand -16.9845 -12.5299
lfingers 7.12502
lthumb 9.25032 17.2471
rfemur 0 0 0
rtibia 0
rfoot 0 0
rtoes 0
lfemur -7.33328 -8.04944 -13.1913
ltibia 21.2977
lfoot -22.3613 13.9141
ltoes -54.7781
408
root -0.635407 18.7282 5.75199 4.02812 2.17649 -0.783315
lowerback 2.01876 3.16525 1.80181
upperback -0.193097 4.27565 0.882538
thorax -1.26298 2.12636 -0.231354
lowerneck -10.125 -6.68637 -7.31032
upperneck 20.2863 -9.28235 6.4496
head 8.63235 -4.31605 2.37559
rclavicle 3.926e-015 -2.38542e-015
rhumerus -16.645 31.0338 -74.7242
rradius 96.8535
rwrist -21.9116
rhand -12.9985 -49.84
rfingers 7.12502
rthumb 13.0947 280.591
lclavicle 3.926e-015 -2.38542e-015
lhumerus -34.5788 -28.2387 104.103
lradius 105.197
lwrist 73.5951
lhand -16.9269 -12.5194
lfingers 7.12502
lthumb 9.30591 17.2552
rfemur 0 0 0
rtibia 0
rfoot 0 0
rtoes 0
lfemur -7.25435 -8.05948 -13.2411
ltibia 21.2807
lfoot -22.4149 13.9194
ltoes -54.7778
409
root -0.634871 18.7269 5.76148 4.04347 2.22378 -0.741941
lowerback 1.6793 3.12159 1.58547
upperback -0.255367 4.20519 0.848319
thorax -1.15085 2.09341 -0.126237
lowerneck -10.0708 -6.67342 -7.14917
upperneck 20.3471 -9.2968 6.42322
head 8.63443 -4.31423 2.34056
rclavicle -9.97154e-014 -1.23246e-014
rhumerus -17.5842 30.9401 -75.6253
rradius 96.9039
rwrist -21.8891
rhand -12.9477 -49.8705
rfingers 7.12502
rthumb 13.1436 280.564
lclavicle -9.97154e-014 -1.23246e-014
lhumerus -34.7143 -28.1237 104.155
lradius 105.106
lwrist 73.4965
lhand -16.6535 -12.5613
lfingers 7.12502
lthumb 9.56969 17.2013
rfemur 0 0 0
rtibia 0
rfoot 0 0
rtoes 0
lfemur -7.24079 -8.01967 -13.2818
ltibia 21.2711
lfoot -22.3969 13.8732
ltoes -54.8318
410
root -0.631746 18.7261 5.76725 4.03541 2.22979 -0.745155
lowerback 1.43651 3.05642 1.40109
upperback -0.3064 4.11042 0.852843
thorax -1.0817 2.04777 -0.00472058
lowerneck -10.1261 -6.63869 -7.03496
upperneck 20.488 -9.28111 6.44281
head 8.68624 -4.29377 2.3286
rclavicle -3.75703e-014 -2.34566e-014
rhumerus -18.333 30.9748 -76.4316
rradius 96.9004
rwrist -21.7916
rhand -12.9017 -50.143
rfingers 7.12502
rthumb 13.1879 280.294
lclavicle -3.75703e-014 -2.34566e-014
lhumerus -34.7629 -27.9 104.149
lradius 105.062
lwrist 73.386
lhand -16.4508 -12.5147
lfingers 7.12502
lthumb 9.76525 17.2389
rfemur 0 0 0
rtibia 0
rfoot 0 0
rtoes 0
lfemur -7.21532 -7.99596 -13.2887
ltibia 21.2697
lfoot -22.4109 13.8394
ltoes -54.8645
411
root -0.629065 18.7243 5.77061 3.95645 2.21805 -0.787488
lowerback 1.34481 2.97392 1.28962
upperback -0.324931 3.99731 0.885076
thorax -1.0603 1.99224 0.0969147
lowerneck -10.3828 -6.62348 -7.14005
upperneck 20.7666 -9.27786 6.59115
head 8.84112 -4.27673 2.38762
rclavicle 3.60049e-014 1.35174e-014
rhumerus -18.8682 31.1222 -77.0795
rradius 96.7738
rwrist -21.667
rhand -13.0651 -50.2459
rfingers 7.12502
rthumb 13.0304 280.181
lclavicle 3.60049e-014 1.35174e-014
lhumerus -34.7332 -27.6067 104.116
lradius 105.054
lwrist 73.3031
lhand -16.4175 -12.2979
lfingers 7.12502
lthumb 9.79733 17.4541
rfemur 0 0 0
rtibia 0
rfoot 0 0
rtoes 0
lfemur -7.11852 -7.96911 -13.2635
ltibia 21.2783
lfoot -22.4417 13.8025
ltoes -54.881
